{
  "asset": {
    "version": "2.0",
    "generator": "THREE.GLTFExporter r175"
  },
  "scenes": [
    {
      "name": "Scene",
      "nodes": [
        5,
        6
      ]
    }
  ],
  "scene": 0,
  "nodes": [
    {
      "name": "wall",
      "extras": {
        "name": "wall"
      },
      "mesh": 0
    },
    {
      "name": "tempwall003",
      "extras": {
        "name": "temp.wall.003"
      },
      "mesh": 1
    },
    {
      "name": "tempwall001",
      "extras": {
        "name": "temp.wall.001"
      },
      "mesh": 2
    },
    {
      "name": "tempwall002",
      "extras": {
        "name": "temp.wall.002"
      },
      "mesh": 3
    },
    {
      "matrix": [
        0.6919341087341309,
        0,
        0,
        0,
        0,
        1,
        0,
        0,
        0,
        0,
        0.9225788116455078,
        0,
        0,
        -0.01,
        0,
        1
      ],
      "name": "bottom",
      "extras": {
        "name": "bottom"
      },
      "mesh": 4
    },
    {
      "name": "room.glb",
      "children": [
        0,
        1,
        2,
        3,
        4
      ]
    },
    {
      "matrix": [
        -3.4615351444110103,
        4.480783682204732,
        -12.539289100505476,
        0,
        -9.16647044633493,
        -10.19940198501734,
        -1.1141982827364463,
        0,
        -9.658520233930037,
        8.07392072354394,
        5.5514151483609915,
        0,
        -9.972680152845786,
        12.74304886971152,
        -16.152602668018282,
        1
      ],
      "name": "SpotLight",
      "extensions": {
        "KHR_lights_punctual": {
          "light": 0
        }
      }
    }
  ],
  "bufferViews": [
    {
      "buffer": 0,
      "byteOffset": 0,
      "byteLength": 7248,
      "target": 34962,
      "byteStride": 12
    },
    {
      "buffer": 0,
      "byteOffset": 7248,
      "byteLength": 7248,
      "target": 34962,
      "byteStride": 12
    },
    {
      "buffer": 0,
      "byteOffset": 14496,
      "byteLength": 4832,
      "target": 34962,
      "byteStride": 8
    },
    {
      "buffer": 0,
      "byteOffset": 19328,
      "byteLength": 2808,
      "target": 34963
    },
    {
      "buffer": 0,
      "byteOffset": 22136,
      "byteLength": 288,
      "target": 34962,
      "byteStride": 12
    },
    {
      "buffer": 0,
      "byteOffset": 22424,
      "byteLength": 288,
      "target": 34962,
      "byteStride": 12
    },
    {
      "buffer": 0,
      "byteOffset": 22712,
      "byteLength": 192,
      "target": 34962,
      "byteStride": 8
    },
    {
      "buffer": 0,
      "byteOffset": 22904,
      "byteLength": 72,
      "target": 34963
    },
    {
      "buffer": 0,
      "byteOffset": 22976,
      "byteLength": 576,
      "target": 34962,
      "byteStride": 12
    },
    {
      "buffer": 0,
      "byteOffset": 23552,
      "byteLength": 576,
      "target": 34962,
      "byteStride": 12
    },
    {
      "buffer": 0,
      "byteOffset": 24128,
      "byteLength": 384,
      "target": 34962,
      "byteStride": 8
    },
    {
      "buffer": 0,
      "byteOffset": 24512,
      "byteLength": 144,
      "target": 34963
    },
    {
      "buffer": 0,
      "byteOffset": 24656,
      "byteLength": 1056,
      "target": 34962,
      "byteStride": 12
    },
    {
      "buffer": 0,
      "byteOffset": 25712,
      "byteLength": 1056,
      "target": 34962,
      "byteStride": 12
    },
    {
      "buffer": 0,
      "byteOffset": 26768,
      "byteLength": 704,
      "target": 34962,
      "byteStride": 8
    },
    {
      "buffer": 0,
      "byteOffset": 27472,
      "byteLength": 336,
      "target": 34963
    },
    {
      "buffer": 0,
      "byteOffset": 27808,
      "byteLength": 204,
      "target": 34962,
      "byteStride": 12
    },
    {
      "buffer": 0,
      "byteOffset": 28012,
      "byteLength": 204,
      "target": 34962,
      "byteStride": 12
    },
    {
      "buffer": 0,
      "byteOffset": 28216,
      "byteLength": 136,
      "target": 34962,
      "byteStride": 8
    },
    {
      "buffer": 0,
      "byteOffset": 28352,
      "byteLength": 108,
      "target": 34963
    }
  ],
  "buffers": [
    {
      "byteLength": 28460,
      "uri": "data:application/octet-stream;base64,"
    }
  ],
  "accessors": [
    {
      "bufferView": 0,
      "componentType": 5126,
      "count": 604,
      "max": [
        3.8648600578308105,
        3.200000047683716,
        6.424823760986328
      ],
      "min": [
        -5.885139465332031,
        0,
        -6.575175762176514
      ],
      "type": "VEC3"
    },
    {
      "bufferView": 1,
      "componentType": 5126,
      "count": 604,
      "max": [
        1,
        1,
        1
      ],
      "min": [
        -1,
        -1,
        -1
      ],
      "type": "VEC3"
    },
    {
      "bufferView": 2,
      "componentType": 5126,
      "count": 604,
      "max": [
        1,
        1
      ],
      "min": [
        0,
        0
      ],
      "type": "VEC2"
    },
    {
      "bufferView": 3,
      "componentType": 5123,
      "count": 1404,
      "max": [
        603
      ],
      "min": [
        0
      ],
      "type": "SCALAR"
    },
    {
      "bufferView": 4,
      "componentType": 5126,
      "count": 24,
      "max": [
        1.562342882156372,
        3.200000047683716,
        2.091452121734619
      ],
      "min": [
        0.00695683341473341,
        0,
        1.9197535514831543
      ],
      "type": "VEC3"
    },
    {
      "bufferView": 5,
      "componentType": 5126,
      "count": 24,
      "max": [
        1,
        1,
        1
      ],
      "min": [
        -1,
        -1,
        -1
      ],
      "type": "VEC3"
    },
    {
      "bufferView": 6,
      "componentType": 5126,
      "count": 24,
      "max": [
        1,
        1
      ],
      "min": [
        0,
        0
      ],
      "type": "VEC2"
    },
    {
      "bufferView": 7,
      "componentType": 5123,
      "count": 36,
      "max": [
        23
      ],
      "min": [
        0
      ],
      "type": "SCALAR"
    },
    {
      "bufferView": 8,
      "componentType": 5126,
      "count": 48,
      "max": [
        0.007607785053551197,
        3.200000047683716,
        -1.712978720664978
      ],
      "min": [
        -5.741405963897705,
        0,
        -1.813690185546875
      ],
      "type": "VEC3"
    },
    {
      "bufferView": 9,
      "componentType": 5126,
      "count": 48,
      "max": [
        1,
        1,
        1
      ],
      "min": [
        -1,
        -1,
        -1
      ],
      "type": "VEC3"
    },
    {
      "bufferView": 10,
      "componentType": 5126,
      "count": 48,
      "max": [
        1,
        1
      ],
      "min": [
        0,
        0
      ],
      "type": "VEC2"
    },
    {
      "bufferView": 11,
      "componentType": 5123,
      "count": 72,
      "max": [
        47
      ],
      "min": [
        0
      ],
      "type": "SCALAR"
    },
    {
      "bufferView": 12,
      "componentType": 5126,
      "count": 88,
      "max": [
        0.006360352970659733,
        3.200000047683716,
        6.262054920196533
      ],
      "min": [
        -3.9430272579193115,
        0,
        1.267724633216858
      ],
      "type": "VEC3"
    },
    {
      "bufferView": 13,
      "componentType": 5126,
      "count": 88,
      "max": [
        1,
        1,
        1
      ],
      "min": [
        -1,
        -1,
        -1
      ],
      "type": "VEC3"
    },
    {
      "bufferView": 14,
      "componentType": 5126,
      "count": 88,
      "max": [
        1,
        1
      ],
      "min": [
        0,
        0
      ],
      "type": "VEC2"
    },
    {
      "bufferView": 15,
      "componentType": 5123,
      "count": 168,
      "max": [
        87
      ],
      "min": [
        0
      ],
      "type": "SCALAR"
    },
    {
      "bufferView": 16,
      "componentType": 5126,
      "count": 17,
      "max": [
        5.58558988571167,
        0,
        6.963983535766602
      ],
      "min": [
        -8.50534725189209,
        0,
        -7.045468330383301
      ],
      "type": "VEC3"
    },
    {
      "bufferView": 17,
      "componentType": 5126,
      "count": 17,
      "max": [
        0,
        1,
        0
      ],
      "min": [
        0,
        1,
        0
      ],
      "type": "VEC3"
    },
    {
      "bufferView": 18,
      "componentType": 5126,
      "count": 17,
      "max": [
        1,
        1
      ],
      "min": [
        0,
        0
      ],
      "type": "VEC2"
    },
    {
      "bufferView": 19,
      "componentType": 5123,
      "count": 54,
      "max": [
        16
      ],
      "min": [
        0
      ],
      "type": "SCALAR"
    }
  ],
  "materials": [
    {
      "pbrMetallicRoughness": {
        "metallicFactor": 1,
        "roughnessFactor": 1
      },
      "emissiveFactor": [
        1,
        1,
        1
      ],
      "doubleSided": true,
      "name": "wall",
      "extensions": {
        "KHR_materials_emissive_strength": {
          "emissiveStrength": 0
        }
      }
    },
    {
      "pbrMetallicRoughness": {
        "baseColorFactor": [
          0.9251208305358887,
          0.9251208305358887,
          0.9251208305358887,
          1
        ],
        "metallicFactor": 0,
        "roughnessFactor": 0.5
      },
      "emissiveFactor": [
        0.5,
        0.11183382570743561,
        0.009589540772140026
      ],
      "doubleSided": true,
      "name": "Material.001",
      "extensions": {
        "KHR_materials_emissive_strength": {
          "emissiveStrength": 0
        }
      }
    }
  ],
  "meshes": [
    {
      "primitives": [
        {
          "mode": 4,
          "attributes": {
            "POSITION": 0,
            "NORMAL": 1,
            "TEXCOORD_0": 2
          },
          "indices": 3,
          "material": 0
        }
      ]
    },
    {
      "primitives": [
        {
          "mode": 4,
          "attributes": {
            "POSITION": 4,
            "NORMAL": 5,
            "TEXCOORD_0": 6
          },
          "indices": 7,
          "material": 0
        }
      ]
    },
    {
      "primitives": [
        {
          "mode": 4,
          "attributes": {
            "POSITION": 8,
            "NORMAL": 9,
            "TEXCOORD_0": 10
          },
          "indices": 11,
          "material": 0
        }
      ]
    },
    {
      "primitives": [
        {
          "mode": 4,
          "attributes": {
            "POSITION": 12,
            "NORMAL": 13,
            "TEXCOORD_0": 14
          },
          "indices": 15,
          "material": 0
        }
      ]
    },
    {
      "primitives": [
        {
          "mode": 4,
          "attributes": {
            "POSITION": 16,
            "NORMAL": 17,
            "TEXCOORD_0": 18
          },
          "indices": 19,
          "material": 1
        }
      ]
    }
  ],
  "extensions": {
    "KHR_lights_punctual": {
      "lights": [
        {
          "name": "SpotLight",
          "color": [
            1,
            0.13286832154414627,
            0
          ],
          "intensity": 1,
          "type": "spot",
          "spot": {
            "innerConeAngle": 0,
            "outerConeAngle": 0.5
          }
        }
      ]
    }
  },
  "extensionsUsed": [
    "KHR_materials_emissive_strength",
    "KHR_lights_punctual"
  ]
}